<?xml version="1.0" standalone="no"?>
<!DOCTYPE svg PUBLIC "-//W3C//DTD SVG 20010904//EN"
 "http://www.w3.org/TR/2001/REC-SVG-20010904/DTD/svg10.dtd">
<svg version="1.0" xmlns="http://www.w3.org/2000/svg"
 width="256.000000pt" height="256.000000pt" viewBox="0 0 256.000000 256.000000"
 preserveAspectRatio="xMidYMid meet">
<metadata>
Created by potrace 1.10, written by Peter Selinger 2001-2011
</metadata>
<g transform="translate(0.000000,256.000000) scale(0.100000,-0.100000)"
fill="#000000" stroke="none">
<path d="M1150 2339 c-44 -18 -86 -56 -104 -97 -17 -37 -21 -40 -73 -46 -102
-12 -185 -74 -232 -175 -22 -48 -26 -73 -29 -173 -4 -103 -2 -122 15 -150 l19
-33 -92 3 c-107 4 -133 -6 -202 -72 -55 -52 -78 -97 -97 -186 -28 -133 -15
-281 31 -363 33 -59 103 -123 168 -153 52 -23 53 -25 47 -57 -6 -30 -10 -32
-60 -37 -46 -5 -58 -11 -92 -47 -38 -41 -39 -44 -39 -114 l0 -73 50 -48 c27
-26 59 -48 70 -48 11 0 66 -11 123 -25 56 -14 212 -52 347 -84 135 -33 331
-81 435 -106 152 -37 203 -46 254 -43 60 4 66 7 102 46 38 40 39 43 39 116 0
66 -3 78 -26 106 l-26 31 37 157 c20 86 50 207 65 267 15 61 42 173 60 250 18
77 36 147 40 155 4 8 20 17 36 21 83 17 177 99 208 181 26 68 20 217 -12 278
-13 25 -34 56 -45 68 -29 31 -101 73 -139 81 -27 5 -33 13 -48 63 -9 31 -27
71 -38 90 -35 57 -114 126 -177 155 -51 24 -76 28 -163 31 -73 3 -115 -1 -147
-11 -40 -14 -45 -14 -57 0 -37 45 -180 69 -248 42z m168 -35 c20 -8 48 -26 62
-39 l26 -25 54 21 c80 30 202 24 285 -14 101 -47 172 -129 205 -235 18 -58 26
-67 70 -76 43 -9 118 -63 143 -103 36 -57 47 -99 47 -172 0 -77 -24 -138 -73
-189 -35 -37 -115 -82 -146 -82 -11 0 -23 -5 -27 -11 -4 -7 -24 -9 -54 -6
l-48 6 -52 -217 c-63 -263 -65 -270 -92 -299 -17 -18 -32 -23 -69 -23 -40 0
-51 4 -73 31 -14 17 -26 37 -26 45 0 8 21 99 46 202 50 209 84 351 84 357 0 6
-103 -58 -111 -68 -3 -5 -16 -54 -29 -110 -17 -80 -28 -107 -50 -129 -40 -39
-91 -39 -131 1 -34 34 -38 78 -14 157 8 27 15 54 15 61 0 6 -24 22 -53 36 -67
30 -120 77 -154 134 -23 40 -29 44 -52 38 -68 -18 -137 -16 -197 5 -32 12 -67
22 -76 23 -9 1 -14 5 -11 10 2 4 -11 25 -31 47 -44 49 -49 70 -44 178 8 178
101 290 252 308 55 7 57 8 84 57 46 86 147 120 240 81z m-576 -674 c20 -6 39
-17 42 -25 3 -8 12 -15 21 -15 9 0 43 -9 77 -21 47 -16 82 -20 145 -18 l82 3
29 -40 c37 -50 84 -91 140 -117 35 -18 42 -25 37 -42 -4 -11 -9 -55 -12 -97
l-6 -77 36 -36 c32 -32 40 -35 92 -35 51 0 60 3 90 33 27 27 36 48 55 132 20
89 41 137 54 124 2 -2 -20 -103 -50 -224 -29 -121 -54 -237 -54 -257 0 -28 8
-46 31 -73 30 -34 34 -35 99 -35 65 0 69 2 98 34 21 24 34 56 46 107 9 41 34
144 55 229 36 149 38 155 64 158 33 4 33 3 2 -117 -23 -91 -59 -240 -140 -574
l-36 -149 31 -34 c26 -30 30 -43 30 -89 0 -48 -4 -60 -33 -91 -50 -55 -85 -55
-312 1 -104 25 -300 73 -435 106 -135 32 -291 70 -347 84 -57 14 -112 25 -123
25 -11 0 -40 19 -65 43 -42 41 -45 47 -45 96 0 49 4 57 39 92 33 34 45 39 84
39 54 0 66 12 69 75 l3 48 -64 33 c-138 71 -201 179 -201 345 0 64 25 181 49
227 22 43 82 102 126 125 35 19 141 22 197 7z"/>
<path d="M578 1463 c-44 -46 -58 -93 -58 -196 0 -89 19 -138 70 -181 35 -29
77 -43 89 -30 9 10 37 113 77 281 31 131 30 135 -53 152 -81 16 -85 15 -125
-26z m139 -12 c13 -3 23 -9 24 -14 3 -27 -80 -347 -91 -347 -4 0 -19 9 -34 21
-83 65 -91 245 -14 326 32 33 39 34 115 14z"/>
</g>
</svg>
