<?xml version="1.0" standalone="no"?>
<!DOCTYPE svg PUBLIC "-//W3C//DTD SVG 20010904//EN"
 "http://www.w3.org/TR/2001/REC-SVG-20010904/DTD/svg10.dtd">
<svg version="1.0" xmlns="http://www.w3.org/2000/svg"
 width="82.000000pt" height="112.000000pt" viewBox="0 0 82.000000 112.000000"
 preserveAspectRatio="xMidYMid meet">
<metadata>
Created by potrace 1.10, written by Peter Selinger 2001-2011
</metadata>
<g transform="translate(0.000000,112.000000) scale(0.100000,-0.100000)"
fill="#000000" stroke="none">
<path d="M460 1059 c-62 -96 -136 -248 -160 -328 -19 -61 -22 -89 -18 -163 6
-89 5 -91 -36 -182 -103 -225 -120 -245 -188 -225 -18 5 -39 9 -45 9 -25 0
-12 -39 20 -64 40 -31 169 -91 215 -101 29 -6 32 -4 32 17 0 14 -14 38 -35 58
-19 19 -35 43 -35 54 0 12 33 90 73 174 73 152 74 153 123 176 71 34 114 85
179 215 44 87 115 282 115 315 0 28 -52 67 -120 90 -70 24 -77 22 -120 -45z
m220 -43 c0 -26 -76 -228 -115 -306 -58 -117 -105 -174 -171 -206 l-57 -28
-73 -152 c-40 -84 -74 -158 -75 -166 -5 -36 4 -61 33 -94 32 -36 32 -37 8 -30
-39 12 -163 72 -185 90 -19 17 -19 17 16 12 77 -13 88 -1 178 183 73 149 81
171 71 195 -18 49 -12 143 16 224 29 85 99 225 156 314 l37 57 81 -39 c46 -23
80 -46 80 -54z"/>
<path d="M433 928 c-64 -103 -123 -265 -123 -340 0 -41 24 -78 51 -78 52 0
107 53 167 160 36 65 122 265 122 286 0 11 -20 14 -95 14 l-95 0 -27 -42z m19
-80 c-9 -9 -12 -7 -12 12 0 19 3 21 12 12 9 -9 9 -15 0 -24z m85 5 c-4 -3 -7
0 -7 7 0 7 3 10 7 7 3 -4 3 -10 0 -14z m-42 -3 c3 -5 1 -10 -4 -10 -6 0 -11 5
-11 10 0 6 2 10 4 10 3 0 8 -4 11 -10z m25 -90 c0 -5 -4 -10 -10 -10 -5 0 -10
5 -10 10 0 6 5 10 10 10 6 0 10 -4 10 -10z m-30 -58 c0 -13 -12 -22 -22 -16
-10 6 -1 24 13 24 5 0 9 -4 9 -8z m-33 -59 c-4 -3 -10 -3 -14 0 -3 4 0 7 7 7
7 0 10 -3 7 -7z"/>
</g>
</svg>
