<?xml version="1.0" standalone="no"?>
<!DOCTYPE svg PUBLIC "-//W3C//DTD SVG 20010904//EN"
 "http://www.w3.org/TR/2001/REC-SVG-20010904/DTD/svg10.dtd">
<svg version="1.0" xmlns="http://www.w3.org/2000/svg"
 width="256.000000pt" height="256.000000pt" viewBox="0 0 256.000000 256.000000"
 preserveAspectRatio="xMidYMid meet">
<metadata>
Created by potrace 1.10, written by Peter Selinger 2001-2011
</metadata>
<g transform="translate(0.000000,256.000000) scale(0.100000,-0.100000)"
fill="#0c0b0b" stroke="none">
<path d="M1160 2329 c-44 -18 -86 -56 -104 -97 -17 -37 -21 -40 -73 -46 -102
-12 -185 -74 -231 -175 -21 -45 -27 -76 -30 -153 -5 -118 -1 -137 41 -185 24
-28 27 -35 12 -28 -11 4 -61 10 -111 13 -105 5 -132 -5 -202 -72 -55 -52 -78
-97 -97 -186 -27 -128 -15 -262 31 -343 33 -60 103 -123 170 -154 54 -25 55
-25 48 -61 -9 -52 -10 -52 -61 -52 -41 0 -50 -5 -89 -44 -43 -42 -44 -45 -44
-107 0 -62 0 -63 50 -111 27 -26 59 -48 70 -48 11 0 66 -11 123 -25 56 -14
212 -52 347 -84 135 -33 331 -81 435 -106 239 -59 279 -58 337 3 36 39 38 45
38 106 0 57 -3 69 -28 98 l-29 33 34 140 c127 524 172 705 178 716 4 5 15 9
26 9 35 0 114 47 155 92 59 64 77 118 73 220 -4 87 -26 146 -72 196 -29 31
-101 73 -139 81 -27 5 -33 13 -48 63 -22 72 -47 111 -107 170 -73 71 -148 102
-260 106 -68 3 -106 -1 -143 -13 -50 -17 -52 -17 -73 3 -50 47 -162 67 -227
41z m158 -25 c20 -8 48 -26 62 -39 l26 -25 54 21 c80 30 202 24 285 -14 101
-47 172 -129 205 -235 18 -58 26 -67 70 -76 43 -9 118 -63 143 -103 36 -57 47
-99 47 -172 0 -77 -24 -138 -73 -189 -35 -37 -115 -82 -146 -82 -11 0 -23 -5
-27 -11 -4 -7 -24 -9 -54 -6 l-48 6 -52 -217 c-63 -263 -65 -270 -92 -299 -17
-18 -32 -23 -69 -23 -40 0 -51 4 -73 31 -14 17 -26 37 -26 45 0 8 21 99 46
202 50 209 84 351 84 357 0 6 -103 -58 -111 -68 -3 -5 -16 -54 -29 -110 -17
-80 -28 -107 -50 -129 -40 -39 -91 -39 -131 1 -34 34 -38 78 -14 157 8 27 15
54 15 61 0 6 -24 22 -53 36 -67 30 -120 77 -154 134 -23 40 -29 44 -52 38 -68
-18 -137 -16 -197 5 -32 12 -67 22 -76 23 -9 1 -14 5 -11 10 2 4 -11 25 -31
47 -44 49 -49 70 -44 178 8 178 101 290 252 308 55 7 57 8 84 57 46 86 147
120 240 81z m-538 -686 c85 -38 178 -60 241 -56 35 2 71 7 79 11 11 5 21 -3
34 -28 33 -60 131 -138 203 -160 1 -1 -4 -23 -12 -50 -8 -26 -15 -70 -15 -98
0 -42 5 -54 34 -83 29 -29 41 -34 80 -34 36 0 52 6 78 28 27 25 35 45 58 138
24 99 29 110 57 127 l31 18 -13 -58 c-8 -32 -34 -142 -59 -245 -25 -103 -46
-199 -46 -212 0 -14 14 -41 31 -61 29 -32 35 -35 89 -35 53 0 60 3 88 34 21
24 34 56 46 107 9 41 34 144 55 229 l38 155 31 3 c40 4 40 0 7 -127 -23 -91
-59 -240 -140 -574 l-36 -149 31 -34 c26 -30 30 -43 30 -89 0 -48 -4 -60 -33
-91 -50 -55 -85 -55 -312 1 -104 25 -300 73 -435 106 -135 32 -291 70 -347 84
-57 14 -112 25 -123 25 -11 0 -40 19 -65 43 -42 41 -45 47 -45 96 0 49 4 57
39 92 33 34 45 39 84 39 54 0 66 12 69 75 l3 48 -64 33 c-138 71 -201 179
-201 345 0 64 25 181 49 227 22 42 81 102 126 126 38 21 183 17 235 -6z"/>
<path d="M578 1463 c-44 -46 -58 -93 -58 -196 0 -89 19 -138 70 -181 35 -29
77 -43 89 -30 9 10 37 113 77 281 31 131 30 135 -53 152 -81 16 -85 15 -125
-26z m114 6 c29 -6 56 -14 60 -18 11 -10 -80 -381 -93 -381 -19 0 -77 51 -96
85 -18 31 -23 56 -23 110 0 92 15 143 53 183 35 37 30 35 99 21z"/>
</g>
</svg>
