<?xml version="1.0" standalone="no"?>
<!DOCTYPE svg PUBLIC "-//W3C//DTD SVG 20010904//EN"
 "http://www.w3.org/TR/2001/REC-SVG-20010904/DTD/svg10.dtd">
<svg version="1.0" xmlns="http://www.w3.org/2000/svg"
 width="246.000000pt" height="336.000000pt" viewBox="0 0 246.000000 336.000000"
 preserveAspectRatio="xMidYMid meet">
<metadata>
Created by potrace 1.10, written by Peter Selinger 2001-2011
</metadata>
<g transform="translate(0.000000,336.000000) scale(0.100000,-0.100000)"
fill="#000000" stroke="none">
<path d="M1484 3351 c3 -5 -7 -25 -22 -45 -15 -19 -45 -65 -67 -102 -22 -36
-49 -78 -61 -92 -28 -37 -94 -158 -94 -173 0 -7 -11 -24 -24 -38 -27 -29 -176
-314 -176 -337 0 -8 -4 -14 -9 -14 -15 0 -81 -145 -81 -177 0 -17 -7 -36 -15
-43 -8 -7 -15 -25 -15 -39 0 -15 -7 -36 -15 -47 -8 -10 -15 -35 -15 -55 0 -20
-7 -42 -15 -49 -9 -7 -15 -29 -15 -52 0 -21 -7 -53 -17 -71 -13 -27 -16 -67
-17 -239 -1 -183 1 -208 17 -225 23 -26 24 -135 2 -153 -8 -7 -15 -18 -15 -25
0 -11 -51 -120 -126 -268 -13 -27 -24 -54 -24 -60 0 -7 -16 -43 -35 -80 -19
-38 -35 -74 -35 -82 0 -7 -7 -15 -15 -19 -8 -3 -15 -10 -15 -17 0 -6 -37 -84
-82 -174 -75 -150 -85 -164 -123 -183 -67 -34 -119 -46 -143 -33 -11 6 -35 11
-52 11 -17 0 -53 7 -81 16 -27 9 -60 13 -74 10 -23 -6 -25 -11 -25 -65 0 -55
2 -61 35 -90 20 -17 39 -31 44 -31 5 0 25 -14 46 -30 21 -17 117 -69 214 -116
97 -47 189 -92 204 -100 16 -8 39 -14 52 -14 12 0 28 -6 34 -14 11 -14 43 -21
145 -32 56 -7 66 1 66 60 0 35 -8 47 -88 130 -48 50 -97 105 -110 123 -33 47
-30 115 8 191 17 34 30 67 30 73 0 11 118 255 266 552 13 27 24 57 24 67 0 10
7 23 15 30 8 7 15 18 15 24 0 16 43 97 65 124 11 12 31 22 45 22 55 0 272 129
324 192 92 112 126 157 126 163 0 4 15 28 34 54 18 25 50 81 70 123 21 43 41
80 46 83 10 6 40 64 40 77 0 15 50 117 61 123 5 4 9 14 9 24 0 10 7 24 15 31
8 7 15 22 15 34 0 11 7 30 15 40 8 11 15 32 15 47 0 14 7 32 15 39 8 7 15 20
15 29 0 10 7 26 15 37 8 10 15 31 15 45 0 15 7 32 15 39 8 7 15 24 15 39 0 14
7 35 15 45 8 11 15 28 15 38 0 10 9 37 21 59 11 23 18 43 15 46 -3 3 4 23 15
45 11 22 18 46 15 53 -2 7 2 21 9 32 9 11 14 44 15 91 0 65 -3 76 -22 93 -13
10 -31 18 -40 19 -9 0 -29 15 -43 34 -32 42 -138 99 -218 116 -31 7 -62 19
-68 27 -6 7 -20 13 -30 13 -11 0 -19 7 -19 15 0 12 -16 15 -86 15 -47 0 -83
-4 -80 -9z m116 -61 c14 -11 31 -20 38 -20 8 0 26 -6 40 -14 15 -7 80 -40 144
-72 186 -94 202 -103 216 -114 14 -13 10 -31 -19 -97 -11 -23 -19 -51 -19 -63
0 -11 -7 -23 -15 -26 -10 -4 -15 -20 -15 -44 0 -22 -4 -42 -10 -45 -5 -3 -10
-18 -10 -33 0 -15 -7 -40 -15 -56 -8 -15 -15 -33 -15 -40 0 -6 -7 -24 -15 -39
-8 -15 -17 -43 -21 -62 -3 -19 -10 -35 -14 -35 -5 0 -11 -14 -15 -31 -4 -17
-13 -42 -21 -57 -8 -15 -14 -32 -14 -39 0 -10 -18 -51 -42 -93 -4 -8 -11 -22
-14 -30 -15 -40 -26 -63 -75 -165 -30 -60 -76 -147 -104 -193 -27 -46 -59 -98
-70 -117 -41 -69 -163 -201 -234 -254 -17 -13 -51 -33 -74 -43 -23 -11 -55
-26 -70 -34 -16 -8 -39 -14 -53 -14 -24 0 -104 -63 -104 -82 0 -10 -20 -54
-167 -358 -73 -150 -114 -239 -127 -270 -3 -8 -10 -22 -15 -30 -5 -8 -19 -37
-31 -65 -12 -27 -33 -72 -47 -100 -46 -93 -55 -128 -42 -182 20 -85 47 -129
125 -203 82 -78 92 -108 31 -96 -17 4 -34 11 -35 16 -2 6 -21 13 -43 16 -21 4
-44 13 -50 20 -6 8 -18 14 -26 14 -8 0 -27 6 -41 13 -28 15 -86 41 -112 51 -8
3 -23 10 -32 16 -10 5 -26 14 -35 19 -131 69 -160 85 -174 97 -8 8 -20 14 -25
14 -20 0 -67 47 -59 60 9 15 102 7 119 -10 13 -13 123 -13 131 0 3 6 17 10 31
10 14 0 45 11 69 25 47 28 43 20 260 470 48 99 113 234 145 300 122 251 125
256 106 288 -9 16 -16 33 -16 38 0 6 -9 31 -21 56 -19 42 -21 61 -17 218 2
111 7 177 15 186 6 8 14 37 18 64 4 28 11 55 15 60 4 6 10 24 14 40 6 27 20
62 47 117 5 10 9 26 9 36 0 9 9 34 20 55 11 20 20 41 20 47 0 5 13 32 30 58
17 27 30 55 30 62 0 13 87 190 120 245 10 17 28 49 40 72 12 23 33 59 47 80
14 20 29 46 34 57 13 30 48 86 70 115 10 13 19 27 19 32 0 9 83 133 108 162
19 22 31 21 62 -3z"/>
<path d="M1359 2883 c-20 -22 -110 -180 -167 -293 -24 -47 -47 -92 -52 -100
-5 -8 -22 -46 -40 -85 -17 -38 -38 -83 -46 -98 -8 -16 -14 -35 -14 -42 0 -7
-6 -26 -14 -42 -26 -52 -63 -175 -76 -248 -5 -27 -14 -66 -19 -85 -6 -19 -11
-75 -11 -123 0 -68 5 -98 21 -134 63 -138 177 -149 334 -33 77 57 174 179 246
307 18 32 43 76 56 98 27 49 100 196 143 290 62 136 73 160 86 193 19 44 43
101 59 137 7 17 16 42 19 58 4 15 11 27 16 27 6 0 10 13 10 30 0 19 7 34 20
42 27 17 29 93 3 106 -10 5 -140 10 -288 11 -251 2 -272 1 -286 -16z m303
-255 c-15 -15 -26 -4 -18 18 5 13 9 15 18 6 9 -9 9 -15 0 -24z m-312 -27 c14
-28 13 -47 -7 -66 -16 -16 -17 -16 -30 1 -16 22 -17 56 -1 72 17 17 26 15 38
-7z m260 -27 c0 -31 -23 -28 -28 4 -2 15 2 22 12 22 11 0 16 -9 16 -26z m-140
-29 c16 -19 6 -45 -19 -45 -23 0 -35 28 -20 46 15 18 24 18 39 -1z m78 -272
c-2 -22 -9 -29 -31 -31 -18 -2 -29 2 -33 12 -11 28 4 46 36 46 28 0 31 -3 28
-27z m-94 -175 c8 -13 8 -23 0 -35 -27 -44 -88 -7 -64 38 13 24 48 22 64 -3z
m-105 -162 c9 -10 8 -16 -4 -26 -17 -14 -45 -7 -45 13 0 29 30 37 49 13z"/>
</g>
</svg>
